:FULLY-SPECIFIED
:FORCE-ALL-JOINTS-BE-3DOF
:DEGREES
204
root 4.87455 15.0695 -25.4317 7.08986 -1.36729 5.68602
lfemur 7.47986 -1.49655 0.724356
ltibia 5.96948 0 0
lfoot -35.3987 -13.0053 0
ltoes 47.1766 0 0
rfemur -30.9193 -19.3676 -8.84001
rtibia 50.3422 0 0
rfoot -26.6755 17.6099 0
rtoes 60.0677 0 0
lowerback -3.41921 -1.65585 -0.392371
upperback -0.56386 -2.10481 -7.71867
thorax 1.05676 -1.05776 -7.94487
lowerneck -11.7038 0.418977 6.6843
upperneck 3.68847 -0.613405 2.54862
head 3.26442 -0.0819445 -0.380114
lclavicle -2.07531e-14 -3.21236e-14 0
lhumerus -58.7581 -46.5057 115.512
lradius 54.1622 0 0
lwrist 27.0517 0 0
lhand 39.9737 31.1536 0
lfingers 7.12502 0 0
lthumb 62.371 42.1591 0
rclavicle -2.07531e-14 -3.21236e-14 0
rhumerus -4.6279 -9.77438 -11.5138
rradius 59.3901 0 0
rwrist -25.5414 0 0
rhand -17.2546 -48.135 0
rfingers 7.12502 0 0
rthumb 8.95568 -506 0
205
root 4.85532 15.056 -25.4468 7.15718 -1.40566 5.63942
lfemur 7.46139 -1.68526 0.801442
ltibia 5.85873 0 0
lfoot -35.6234 -12.5185 0
ltoes 47.1587 0 0
rfemur -31.2876 -19.7113 -8.65278
rtibia 50.6908 0 0
rfoot -26.6688 17.9134 0
rtoes 60.1501 0 0
lowerback -3.16398 -1.55512 -0.429954
upperback -0.620748 -1.98473 -7.68011
thorax 0.873277 -1.00129 -7.86538
lowerneck -11.5591 0.398044 6.7858
upperneck 3.73938 -0.6399 2.46635
head 3.25379 -0.0963956 -0.426494
lclavicle -1.25433e-14 -2.35361e-14 0
lhumerus -59.0245 -46.6848 115.914
lradius 54.1483 0 0
lwrist 26.3255 0 0
lhand 40.2508 30.5448 0
lfingers 7.12502 0 0
lthumb 62.6004 41.2516 0
rclavicle -1.25433e-14 -2.35361e-14 0
rhumerus -4.0476 -16.9776 -12.661
rradius 58.1814 0 0
rwrist -24.3673 0 0
rhand -26.2959 -53.4823 0
rfingers 7.12502 0 0
rthumb 0.24202 -546.188 0
206
root 4.8361 15.0424 -25.462 7.22449 -1.44402 5.59283
lfemur 7.44291 -1.87397 0.878527
ltibia 5.74798 0 0
lfoot -35.8481 -12.0316 0
ltoes 47.1409 0 0
rfemur -31.656 -20.0551 -8.46556
rtibia 51.0395 0 0
rfoot -26.6622 18.2168 0
rtoes 60.2326 0 0
lowerback -2.90876 -1.45438 -0.467536
upperback -0.677637 -1.86464 -7.64154
thorax 0.689789 -0.944814 -7.7859
lowerneck -11.4145 0.377112 6.88731
upperneck 3.7903 -0.666395 2.38408
head 3.24317 -0.110847 -0.472874
lclavicle -4.3335e-15 -1.49486e-14 0
lhumerus -59.2908 -46.8638 116.315
lradius 54.1343 0 0
lwrist 25.5992 0 0
lhand 40.528 29.9359 0
lfingers 7.12502 0 0
lthumb 62.8298 40.344 0
rclavicle -4.3335e-15 -1.49486e-14 0
rhumerus -3.46731 -24.1808 -13.8081
rradius 56.9727 0 0
rwrist -23.1931 0 0
rhand -35.3371 -58.8295 0
rfingers 7.12502 0 0
rthumb -8.47164 -586.375 0
207
root 4.81688 15.0289 -25.4771 7.29181 -1.48238 5.54624
lfemur 7.42444 -2.06268 0.955612
ltibia 5.63723 0 0
lfoot -36.0728 -11.5447 0
ltoes 47.123 0 0
rfemur -32.0244 -20.3989 -8.27833
rtibia 51.3881 0 0
rfoot -26.6556 18.5203 0
rtoes 60.315 0 0
lowerback -2.65354 -1.35364 -0.505119
upperback -0.734526 -1.74455 -7.60297
thorax 0.506301 -0.888343 -7.70642
lowerneck -11.2699 0.356179 6.98882
upperneck 3.84121 -0.69289 2.30181
head 3.23254 -0.125298 -0.519254
lclavicle 3.8763e-15 -6.36111e-15 0
lhumerus -59.5572 -47.0428 116.716
lradius 54.1203 0 0
lwrist 24.8729 0 0
lhand 40.8051 29.327 0
lfingers 7.12502 0 0
lthumb 63.0592 39.4365 0
rclavicle 3.8763e-15 -6.36111e-15 0
rhumerus -2.88701 -31.384 -14.9553
rradius 55.764 0 0
rwrist -22.019 0 0
rhand -44.3783 -64.1768 0
rfingers 7.12502 0 0
rthumb -17.1853 -626.563 0
208
root 4.79481 15.034 -25.4941 7.39783 -1.22762 5.31786
lfemur 6.66106 -2.48754 1.30677
ltibia 6.50304 0 0
lfoot -35.6743 -11.2943 0
ltoes 47.3793 0 0
rfemur -32.1102 -20.4734 -7.88903
rtibia 51.4512 0 0
rfoot -26.8262 18.3984 0
rtoes 60.2878 0 0
lowerback -2.4017 -1.47201 -0.551364
upperback -0.708209 -1.91265 -7.37578
thorax 0.383378 -0.973244 -7.42946
lowerneck -11.1701 0.509731 6.86958
upperneck 3.68964 -0.452172 2.22815
head 3.16645 -0.0163148 -0.507583
lclavicle 2.38542e-15 -3.49861e-15 0
lhumerus -59.567 -46.6244 116.732
lradius 54.4055 0 0
lwrist 25.2011 0 0
lhand 39.4893 29.1658 0
lfingers 7.12502 0 0
lthumb 61.9396 40.4924 0
rclavicle 2.38542e-15 -3.49861e-15 0
rhumerus -4.38949 -30.5288 -15.4916
rradius 59.5972 0 0
rwrist -21.8423 0 0
rhand -45.5033 -62.995 0
rfingers 7.12502 0 0
rthumb -18.2667 -662.644 0
209
root 4.77273 15.0391 -25.5111 7.50385 -0.972859 5.08948
lfemur 5.89768 -2.9124 1.65792
ltibia 7.36885 0 0
lfoot -35.2759 -11.0439 0
ltoes 47.6355 0 0
rfemur -32.196 -20.5479 -7.49972
rtibia 51.5144 0 0
rfoot -26.9968 18.2765 0
rtoes 60.2606 0 0
lowerback -2.14987 -1.59039 -0.597609
upperback -0.681891 -2.08075 -7.14858
thorax 0.260455 -1.05815 -7.1525
lowerneck -11.0702 0.663283 6.75034
upperneck 3.53808 -0.211454 2.15448
head 3.10036 0.0926684 -0.495913
lclavicle 8.94532e-16 -6.3611e-16 0
lhumerus -59.5769 -46.2061 116.749
lradius 54.6907 0 0
lwrist 25.5293 0 0
lhand 38.1736 29.0045 0
lfingers 7.12502 0 0
lthumb 60.82 41.5483 0
rclavicle 8.94532e-16 -6.3611e-16 0
rhumerus -5.89197 -29.6736 -16.0279
rradius 63.4303 0 0
rwrist -21.6655 0 0
rhand -46.6284 -61.8132 0
rfingers 7.12502 0 0
rthumb -19.3482 -698.724 0
